<svg width="222" height="177" viewBox="0 0 222 177" fill="none" xmlns="http://www.w3.org/2000/svg">
<path d="M212.828 99.1537C206.348 120.416 196.091 140.112 185.797 153.03C165.431 179.792 137.919 188.137 128.513 153.541C119.33 116.292 131.216 72.0718 150.323 38.2115C159.988 21.8729 185.76 -13.682 208.681 5.56625C227.01 29.4187 222.233 63.8865 213.198 97.7788L212.791 99.1537H212.828Z" fill="#F4AFCD"/>
<path d="M157.026 104.333C149.953 124.605 138.992 143.182 128.254 155.108C106.481 180.431 79.0059 185.611 70.8966 152.262C62.8983 116.483 76.2657 74.0542 96.3724 43.1035C107.111 27.2125 132.846 -3.19458 154.841 15.0625C172.8 37.7959 167.394 71.1126 157.507 103.023L157.026 104.365V104.333Z" fill="#F4AFCD"/>
<path d="M92.0401 110.824C73.5627 134.964 49.8643 164.124 18.5379 166.267C-0.198632 165.499 -5.49375 141.679 6.72575 108.586C14.5018 87.4512 27.0546 66.4764 42.0142 48.4112C62.0097 20.9777 125.884 -23.3061 122.811 40.0021C119.923 64.6859 107.851 87.771 92.7436 109.769L92.0401 110.792V110.824Z" fill="#F4AFCD"/>
</svg>
