<svg width="41" height="42" viewBox="0 0 41 42" fill="none" xmlns="http://www.w3.org/2000/svg">
<g clip-path="url(#clip0_320_1024)">
<path d="M27.9642 12.1242C25.8854 13.6655 16.5839 18.121 9.28962 20.549C19.9595 22.6393 34.7323 30.7117 39.7652 38.3441L39.8217 38.433C44.0173 45.885 15.9987 34.3267 12.1403 31.6519C7.78433 29.3596 1.05187 24.4374 0.423441 21.7304C0.218607 21.2952 0.0345662 20.7106 0.526394 19.7616L0.570058 19.6717C5.51379 11.622 20.8756 2.75306 31.5378 0.709019C47.7891 -2.73231 34.8763 8.21921 27.9643 12.1342L27.9642 12.1242Z" fill="#1D1D1B"/>
</g>
<defs>
<clipPath id="clip0_320_1024">
<rect width="40.8853" height="39.854" fill="white" transform="matrix(-0.00994334 -0.999951 -0.999951 0.00994334 40.2585 40.8833)"/>
</clipPath>
</defs>
</svg>
