<svg width="41" height="42" viewBox="0 0 41 42" fill="none" xmlns="http://www.w3.org/2000/svg">
<g clip-path="url(#clip0_320_1021)">
<path d="M12.2396 29.109C14.363 27.6296 23.7917 23.4501 31.1544 21.2382C20.5508 18.8343 6.02228 10.3301 1.21657 2.55266L1.16263 2.46215C-2.81153 -5.11024 24.8543 7.26872 28.6322 10.0561C32.9187 12.4758 39.5032 17.5943 40.0516 20.3186C40.2435 20.7597 40.4102 21.3494 39.8906 22.2836L39.8444 22.3721C34.6655 30.2727 19.049 38.685 8.33121 40.4139C-8.01443 43.3748 5.21553 32.8086 12.2398 29.099L12.2396 29.109Z" fill="#1D1D1B"/>
</g>
<defs>
<clipPath id="clip0_320_1021">
<rect width="40.8853" height="39.854" fill="white" transform="matrix(-0.0195307 0.999809 0.999809 0.0195307 0.79834 0)"/>
</clipPath>
</defs>
</svg>
