<svg width="24" height="23" viewBox="0 0 24 23" fill="none" xmlns="http://www.w3.org/2000/svg">
<path d="M11.0186 2.90933C11.6386 3.19933 12.1886 2.93933 12.6786 2.51933C13.7886 1.50933 15.8086 -0.200674 17.9386 0.019326C19.4586 0.159326 20.7186 1.06933 21.6686 2.26933C23.5086 4.60933 23.6486 7.85933 22.3486 10.5393C21.5486 12.1793 20.4186 13.7593 19.1886 15.5093C17.5586 17.6393 16.0486 19.1793 14.2086 20.8593C12.9786 22.0293 11.3686 23.1193 9.96856 21.6593C7.24856 19.0893 1.02856 13.2193 0.10856 8.17933C-0.43144 5.22933 1.07856 1.72933 3.84856 0.499326C6.28856 -0.710674 9.02856 1.66933 10.9186 2.85933L11.0186 2.90933Z" fill="#E72787"/>
</svg>
