<svg width="27" height="24" viewBox="0 0 27 24" fill="none" xmlns="http://www.w3.org/2000/svg">
<path d="M12.6313 3.87943C13.2913 4.16943 13.8713 3.90943 14.3813 3.48943C15.5613 2.49943 17.6813 0.799432 19.9313 1.01943C21.5313 1.15943 22.8713 2.05943 23.8713 3.24943C25.8213 5.56943 25.9613 8.77943 24.5813 11.4294C23.7413 13.0494 22.5413 14.6094 21.2513 16.3494C19.5313 18.4594 17.9313 19.9794 15.9913 21.6394C14.7013 22.7894 13.0013 23.8794 11.5213 22.4394C8.65128 19.8794 2.09128 14.0794 1.11128 9.09943C0.551278 6.16943 2.14128 2.70943 5.06128 1.49943C7.64128 0.309432 10.5313 2.65943 12.5213 3.82943L12.6313 3.87943Z" stroke="#1E1E1C" stroke-width="1.06" stroke-miterlimit="10"/>
</svg>
