<svg width="238" height="112" viewBox="0 0 238 112" fill="none" xmlns="http://www.w3.org/2000/svg">
<path d="M0 5.76278C0 3.84186 0.974111 2.88141 2.92235 2.88141H23.5105C25.4061 2.88141 26.3539 3.84186 26.3539 5.76278V81.1053C26.3539 82.1458 26.4592 83.0529 26.6698 83.8533C26.8804 84.627 27.249 85.294 27.8282 85.8009C28.3811 86.3345 29.1446 86.708 30.0924 86.9748C31.0402 87.2416 32.3039 87.375 33.8309 87.375H34.2258C34.884 87.375 35.4106 87.4817 35.7791 87.7218C36.1477 87.9619 36.3847 88.2554 36.5426 88.5755C36.7006 88.9224 36.7796 89.2959 36.8059 89.6961C36.8059 90.1229 36.8586 90.4698 36.8586 90.7899V108.292C36.8586 108.612 36.8322 108.932 36.7796 109.279C36.7269 109.626 36.5163 109.919 36.1741 110.186C35.8055 110.453 35.2789 110.666 34.5417 110.853C33.8309 111.04 32.8041 111.12 31.5404 111.12H26.0643C22.668 111.12 19.3771 110.719 16.2178 109.946C13.0585 109.172 10.2677 107.731 7.89827 105.65C5.50246 103.569 3.58055 100.688 2.15886 97.0596C0.710843 93.4045 0 88.7089 0 82.9195V5.76278Z" fill="#F4AFCD"/>
<path d="M177.316 36.9242C177.316 34.8699 177.053 33.4559 176.553 32.7089C176.026 31.9619 175.263 31.5884 174.236 31.5884C173.209 31.5884 172.472 31.9886 172.024 32.8156C171.577 33.6427 171.34 34.6832 171.287 35.9638V107.198C171.287 108.478 171.024 109.439 170.524 110.132C169.997 110.799 169.391 111.146 168.681 111.146H147.461C145.802 111.146 144.986 109.839 144.986 107.198V36.3907C144.881 34.5498 144.591 33.2959 144.091 32.6022C143.59 31.9352 142.932 31.5884 142.037 31.5884C140.852 31.5884 140.063 32.0953 139.641 33.0824C139.22 34.0696 138.983 35.2435 138.957 36.6041V105.917C138.957 107.838 138.536 109.172 137.719 109.972C136.903 110.746 136.061 111.146 135.166 111.146H115.183C114.42 111.146 113.788 110.799 113.287 110.132C112.787 109.465 112.55 108.452 112.55 107.091V6.16294C112.55 4.74893 112.787 3.70844 113.287 3.06813C113.788 2.42783 114.42 2.10767 115.183 2.10767H128.373C129.611 2.10767 130.506 2.40114 131.111 2.96141C131.69 3.52168 132.191 4.53549 132.533 5.9495L133.007 8.08385C135.218 5.60266 137.614 3.62839 140.168 2.18771C142.748 0.747021 145.486 0 148.408 0C149.435 0 150.62 0.0800442 151.963 0.2668C153.305 0.453555 154.674 0.853744 156.096 1.49405C157.518 2.13435 158.939 3.06813 160.387 4.26871C161.835 5.46928 163.178 7.07004 164.468 9.07099C166.89 6.16294 169.497 3.92187 172.288 2.37446C175.078 0.827059 178.027 0.0266851 181.134 0.0266851C181.792 0.0266851 182.819 0.106718 184.214 0.240115C185.609 0.373512 187.136 0.80038 188.795 1.52072C190.454 2.24107 192.191 3.36161 193.929 4.93569C195.666 6.50977 197.246 8.69747 198.668 11.5255C200.089 14.3535 201.248 17.9552 202.169 22.3306C203.091 26.706 203.565 32.0686 203.565 38.4717V107.251C203.565 108.532 203.328 109.492 202.827 110.186C202.327 110.853 201.722 111.2 200.932 111.2H179.633C178.027 111.2 177.237 109.892 177.237 107.251V36.9776L177.316 36.9242Z" fill="#F4AFCD"/>
<path d="M209.699 8.03054C209.699 6.50982 210.12 5.25588 210.936 4.18871C211.753 3.14821 213.253 2.61462 215.412 2.61462H231.84C233.683 2.61462 235.026 3.09486 235.816 4.05531C236.606 5.01577 237.027 6.32306 237.027 8.00386V22.1439C237.027 24.0115 236.579 25.2921 235.684 25.9858C234.789 26.6527 233.525 26.9996 231.867 26.9996H215.438C213.78 26.9996 212.437 26.6794 211.358 26.0124C210.278 25.3721 209.725 24.0915 209.725 22.224V8.00386L209.699 8.03054ZM210.331 33.8295C210.331 32.8957 210.647 32.2021 211.252 31.7485C211.858 31.295 212.542 31.0815 213.253 31.0815H233.394C234.263 31.0815 235.052 31.3216 235.737 31.8285C236.421 32.3354 236.79 33.0024 236.79 33.8295V108.398C236.79 109.279 236.474 109.972 235.816 110.426C235.158 110.88 234.368 111.12 233.394 111.12H213.253C211.305 111.12 210.331 110.213 210.331 108.372V33.8028V33.8295Z" fill="#F4AFCD"/>
<path d="M78.7721 3.54834H65.424C52.1286 3.54834 41.2554 14.5669 41.2554 28.04V31.8818C41.2554 45.3549 52.1286 56.3735 65.424 56.3735H78.7721C92.0676 56.3735 102.941 45.3549 102.941 31.8818V28.04C102.941 14.5669 92.0676 3.54834 78.7721 3.54834ZM72.1376 38.8718C69.2942 38.8718 67.0037 34.0429 67.0037 28.12C67.0037 22.1972 69.2942 17.3683 72.1376 17.3683C74.981 17.3683 77.2714 22.1972 77.2714 28.12C77.2714 34.0429 74.981 38.8718 72.1376 38.8718Z" fill="#F4AFCD"/>
<path d="M79.2721 58.6946H65.9241C52.6287 58.6946 41.7554 69.7132 41.7554 83.1863V87.0281C41.7554 100.501 52.6287 111.52 65.9241 111.52H79.2721C92.5676 111.52 103.441 100.501 103.441 87.0281V83.1863C103.441 69.7132 92.5676 58.6946 79.2721 58.6946ZM72.9799 97.193C70.1365 97.193 67.846 92.364 67.846 86.4412C67.846 80.5184 70.1365 75.6894 72.9799 75.6894C75.8232 75.6894 78.1137 80.5184 78.1137 86.4412C78.1137 92.364 75.8232 97.193 72.9799 97.193Z" fill="#F4AFCD"/>
</svg>
