<svg width="107" height="46" viewBox="0 0 107 46" fill="none" xmlns="http://www.w3.org/2000/svg">
<path d="M18.3444 30.9391C22.2241 22.5009 33.5027 20.6998 39.6665 27.9699C46.0599 34.5742 39.601 44.4751 31.1967 45.3265C23.8744 46.2326 15.1751 38.6022 18.2679 31.1137L18.3335 30.95L18.3444 30.9391ZM29.4372 38.504C30.224 40.8946 31.3934 36.3207 31.3934 34.2248C31.3388 32.1726 30.541 30.0003 30.1475 29.5746C29.4809 29.1489 28.9563 31.8997 28.7814 32.5001C28.3006 34.2903 28.7377 36.8775 29.3716 38.362L29.4262 38.5149L29.4372 38.504Z" fill="#F4AFCD"/>
<path d="M18.3337 7.5568C20.8911 1.76034 28.4975 -1.77648 34.4865 0.919802C39.6231 3.21219 43.3389 7.79695 42.0274 13.0476C40.1804 19.5536 32.0822 23.7454 25.7216 21.0491C20.4211 18.9641 15.9294 13.2768 18.2682 7.72053L18.3337 7.5568ZM29.4374 15.0562C30.2243 17.4359 31.3937 12.8948 31.3937 10.8098C31.339 8.76848 30.5412 6.61801 30.1478 6.19229C29.6451 5.8648 29.4374 7.03282 29.2516 7.41488C28.3227 9.60902 28.432 12.8839 29.3718 14.9143L29.4265 15.0562H29.4374Z" fill="#F4AFCD"/>
<path d="M1.02244 1.58567C2.71641 0.35215 6.37756 0.406728 8.39939 0.854289C10.5852 1.21452 11.1207 2.75369 11.1207 4.72951C11.1972 10.8862 11.1207 22.6647 11.1425 28.7122C11.1644 30.3169 11.066 32.0525 11.9403 33.3734C12.9239 34.7925 14.1589 35.7313 14.8365 37.5542C16.0714 40.316 15.1315 44.6061 11.5906 44.8244C2.07161 45.2392 -0.442021 37.2595 0.0607044 29.3126C0.0607044 25.0116 0.0607044 17.1193 0.0607044 11.039C0.213708 8.21174 -0.45295 2.76461 0.945939 1.66208L1.03337 1.58567H1.02244Z" fill="#F4AFCD"/>
<path d="M96.256 3.04844C99.8843 -2.37687 110.015 1.81492 106.125 8.27726C102.54 13.2441 92.9227 9.3907 96.1685 3.21218L96.2669 3.05936L96.256 3.04844ZM96.7041 13.2004C98.3106 11.9887 101.862 12.0979 103.884 12.4363C106.147 12.6874 106.868 14.0737 106.846 16.1369C106.912 22.1735 106.846 33.8319 106.868 39.8903C106.813 41.6587 107.043 43.8529 104.977 44.4642C102.529 45.0755 98.7587 45.4575 96.6057 43.7655C95.6877 42.7176 95.9172 40.5889 95.8844 37.3796C95.8844 33.6681 95.8844 29.8366 95.8844 26.0923C95.8844 23.8436 95.8844 21.8678 95.8844 19.7938C95.939 16.4098 95.6767 14.2702 96.6276 13.2768L96.7041 13.2004Z" fill="#F4AFCD"/>
<path d="M81.5134 3.34317C80.3112 3.19035 78.661 4.21646 77.7539 5.61372C77.3932 6.03945 76.9998 6.71625 76.3878 6.6835C76.0708 6.618 76.0708 6.58525 75.896 6.48701C74.7922 5.61372 73.6774 4.48936 72.1802 4.36928C69.5135 3.83439 66.6939 5.44998 65.2294 8.14625C64.9234 8.55015 64.53 9.33612 64.1584 9.42345C63.7213 9.3252 63.6885 8.41916 63.5136 7.91702C63.0655 4.91509 60.6503 1.07262 57.3279 2.83011C53.8525 4.20554 50.2132 15.4382 49.6777 22.5774C49.1204 28.5921 48.1258 45.4575 56.7815 43.4708C61.3497 42.4665 62.4426 35.0545 62.3661 29.8802C62.3661 29.2798 62.377 29.0506 62.4207 29.2908C62.4645 29.5527 62.5737 30.4588 62.7267 31.6268C63.7431 36.9757 63.9398 44.5733 69.6775 44.0057C74.4315 43.4162 74.4534 33.6245 74.3878 29.7274C75.0107 33.0022 74.9233 41.9316 77.9615 44.7807C84.7155 48.7105 86.9341 34.5742 87.557 23.1996C87.874 16.9337 87.1745 3.80164 81.6445 3.35408H81.5134V3.34317Z" fill="#F4AFCD"/>
</svg>
