<svg width="537" height="280" viewBox="0 0 537 280" fill="none" xmlns="http://www.w3.org/2000/svg">
<path d="M142.686 95.7523C142.686 93.8314 143.673 92.8709 145.647 92.8709H166.507C168.428 92.8709 169.388 93.8314 169.388 95.7523V171.095C169.388 172.135 169.495 173.042 169.708 173.843C169.921 174.617 170.295 175.283 170.882 175.79C171.442 176.324 172.216 176.697 173.176 176.964C174.136 177.231 175.417 177.364 176.964 177.364H177.364C178.031 177.364 178.564 177.471 178.938 177.711C179.311 177.951 179.551 178.245 179.711 178.565C179.871 178.912 179.951 179.285 179.978 179.686C179.978 180.112 180.031 180.459 180.031 180.779V198.281C180.031 198.601 180.005 198.921 179.951 199.268C179.898 199.615 179.685 199.909 179.338 200.175C178.964 200.442 178.431 200.656 177.684 200.842C176.964 201.029 175.923 201.109 174.643 201.109H169.095C165.653 201.109 162.319 200.709 159.118 199.935C155.917 199.162 153.089 197.721 150.689 195.64C148.261 193.559 146.314 190.677 144.873 187.049C143.406 183.394 142.686 178.698 142.686 172.909V95.7523Z" fill="#F4AFCD"/>
<path d="M322.344 126.914C322.344 124.859 322.077 123.445 321.571 122.698C321.037 121.951 320.263 121.578 319.223 121.578C318.183 121.578 317.436 121.978 316.982 122.805C316.529 123.632 316.289 124.673 316.235 125.953V197.187C316.235 198.468 315.969 199.428 315.462 200.122C314.928 200.789 314.315 201.136 313.595 201.136H292.094C290.414 201.136 289.587 199.828 289.587 197.187V126.38C289.48 124.539 289.187 123.285 288.68 122.592C288.173 121.925 287.506 121.578 286.599 121.578C285.399 121.578 284.599 122.085 284.172 123.072C283.745 124.059 283.505 125.233 283.478 126.594V195.907C283.478 197.828 283.051 199.161 282.224 199.962C281.398 200.736 280.544 201.136 279.637 201.136H259.39C258.617 201.136 257.977 200.789 257.47 200.122C256.963 199.455 256.723 198.441 256.723 197.081V96.1524C256.723 94.7384 256.963 93.6979 257.47 93.0576C257.977 92.4173 258.617 92.0972 259.39 92.0972H272.755C274.008 92.0972 274.915 92.3906 275.529 92.9509C276.116 93.5112 276.623 94.525 276.969 95.939L277.45 98.0733C279.69 95.5922 282.118 93.6179 284.705 92.1772C287.319 90.7365 290.094 89.9895 293.055 89.9895C294.095 89.9895 295.295 90.0695 296.656 90.2563C298.016 90.4431 299.403 90.8432 300.844 91.4836C302.284 92.1239 303.725 93.0576 305.192 94.2582C306.659 95.4588 308.019 97.0595 309.327 99.0605C311.781 96.1524 314.422 93.9114 317.249 92.364C320.077 90.8166 323.064 90.0162 326.212 90.0162C326.879 90.0162 327.919 90.0962 329.333 90.2296C330.747 90.363 332.294 90.7899 333.974 91.5102C335.655 92.2306 337.416 93.3511 339.176 94.9252C340.937 96.4993 342.537 98.687 343.978 101.515C345.418 104.343 346.592 107.945 347.526 112.32C348.459 116.696 348.939 122.058 348.939 128.461V197.241C348.939 198.521 348.699 199.482 348.192 200.175C347.686 200.842 347.072 201.189 346.272 201.189H324.692C323.064 201.189 322.264 199.882 322.264 197.241V126.967L322.344 126.914Z" fill="#F4AFCD"/>
<path d="M355.155 98.02C355.155 96.4993 355.581 95.2454 356.408 94.1782C357.235 93.1377 358.756 92.6041 360.943 92.6041H377.589C379.456 92.6041 380.816 93.0843 381.617 94.0448C382.417 95.0052 382.844 96.3125 382.844 97.9933V112.133C382.844 114.001 382.39 115.282 381.483 115.975C380.576 116.642 379.296 116.989 377.615 116.989H360.97C359.289 116.989 357.929 116.669 356.835 116.002C355.742 115.362 355.181 114.081 355.181 112.213V97.9933L355.155 98.02ZM355.795 123.819C355.795 122.885 356.115 122.192 356.728 121.738C357.342 121.284 358.036 121.071 358.756 121.071H379.162C380.043 121.071 380.843 121.311 381.537 121.818C382.23 122.325 382.604 122.992 382.604 123.819V198.388C382.604 199.268 382.283 199.962 381.617 200.415C380.95 200.869 380.149 201.109 379.162 201.109H358.756C356.782 201.109 355.795 200.202 355.795 198.361V123.792V123.819Z" fill="#F4AFCD"/>
<path d="M222.498 93.5379H208.974C195.503 93.5379 184.486 104.556 184.486 118.03V121.871C184.486 135.344 195.503 146.363 208.974 146.363H222.498C235.969 146.363 246.986 135.344 246.986 121.871V118.03C246.986 104.556 235.969 93.5379 222.498 93.5379ZM215.776 128.861C212.895 128.861 210.575 124.032 210.575 118.11C210.575 112.187 212.895 107.358 215.776 107.358C218.657 107.358 220.978 112.187 220.978 118.11C220.978 124.032 218.657 128.861 215.776 128.861Z" fill="#F4AFCD"/>
<path d="M223.005 148.684H209.481C196.01 148.684 184.993 159.703 184.993 173.176V177.018C184.993 190.491 196.01 201.509 209.481 201.509H223.005C236.476 201.509 247.493 190.491 247.493 177.018V173.176C247.493 159.703 236.476 148.684 223.005 148.684ZM216.63 187.182C213.749 187.182 211.428 182.354 211.428 176.431C211.428 170.508 213.749 165.679 216.63 165.679C219.511 165.679 221.832 170.508 221.832 176.431C221.832 182.354 219.511 187.182 216.63 187.182Z" fill="#F4AFCD"/>
</svg>
