<svg width="1175" height="493" viewBox="0 0 1175 493" fill="none" xmlns="http://www.w3.org/2000/svg">
<g clip-path="url(#clip0_255_269)">
<path d="M43.5578 18.7933C108.127 -67.136 170.1 257.197 164.67 308.967C169.864 395.724 133.743 582.475 48.5156 417.945C-10.1518 311.567 -19.8313 117.724 42.7315 19.8571L43.5578 18.7933Z" fill="#F4AFCD"/>
<path d="M1058.26 30.022C1094.73 -30.7312 1206.4 11.5833 1166.5 83.4471C1129.55 137.581 1026.27 101.177 1057.43 31.6768L1058.26 30.022ZM1089.77 145.146C1135.57 77.0645 1172.17 212.873 1173.47 285.682C1175 323.742 1172.05 364.638 1163.08 400.924C1149.03 462.269 1111.14 526.332 1076.43 432.838C1045.39 352.345 1047.16 217.719 1088.95 146.328L1089.77 145.028V145.146Z" fill="#F4AFCD"/>
<path d="M258.514 465.224C370.301 548.553 578.765 428.937 433.1 307.667C394.145 275.636 332.881 271.144 288.615 294.074C221.803 329.77 184.737 413.572 257.216 464.278L258.514 465.224Z" fill="#F4AFCD"/>
<path d="M438.648 25.0578C379.154 -14.5382 283.657 -7.09184 237.502 46.6878C186.508 99.5219 240.926 202.235 301.836 230.011C354.837 255.424 419.407 232.375 451.042 183.796C491.767 128.007 497.551 62.999 439.71 25.767L438.648 25.0578Z" fill="#F4AFCD"/>
<path d="M995.575 289.701C981.056 344.781 958.155 395.842 935.137 429.292C889.69 498.673 828.072 520.304 807.06 430.592C786.521 334.025 813.08 219.374 855.812 131.672C877.414 89.357 935.019 -2.83675 986.249 47.0424C1027.21 108.859 1016.59 198.216 996.401 286.037L995.457 289.583L995.575 289.701Z" fill="#F4AFCD"/>
<path d="M870.921 303.175C855.104 355.655 830.669 403.879 806.588 434.729C757.954 500.328 696.572 513.803 678.393 427.401C660.569 334.734 690.434 224.693 735.29 144.437C759.371 103.186 816.74 24.4668 865.964 71.7456C906.098 130.726 894.058 217.01 871.866 299.748L870.803 303.175H870.921Z" fill="#F4AFCD"/>
<path d="M725.61 319.959C684.295 382.486 631.412 458.132 561.294 463.687C519.389 461.678 507.585 399.979 534.853 314.168C552.205 259.324 580.299 204.954 613.706 158.266C658.444 87.1112 801.158 -27.6581 794.311 136.399C787.937 200.344 760.787 260.152 727.027 317.241L725.374 319.841L725.61 319.959Z" fill="#F4AFCD"/>
</g>
<defs>
<clipPath id="clip0_255_269">
<rect width="1175" height="493" fill="white"/>
</clipPath>
</defs>
</svg>
