<svg width="14" height="15" viewBox="0 0 14 15" fill="none" xmlns="http://www.w3.org/2000/svg">
<path d="M5.5277 0.579987C8.4611 0.579987 10.8391 2.95798 10.8391 5.89137C10.8391 7.18425 10.3771 8.36924 9.60932 9.29029L13.5948 13.2756C13.7833 13.4642 13.7833 13.7699 13.5948 13.9585C13.4272 14.1261 13.167 14.1447 12.9788 14.0143L12.9119 13.9585L8.92661 9.97299C8.00556 10.7408 6.82058 11.2028 5.5277 11.2028C2.5943 11.2028 0.216309 8.82477 0.216309 5.89137C0.216309 2.95798 2.5943 0.579987 5.5277 0.579987ZM5.5277 1.54569C3.12764 1.54569 1.18202 3.49132 1.18202 5.89137C1.18202 8.29143 3.12764 10.2371 5.5277 10.2371C7.92775 10.2371 9.87338 8.29143 9.87338 5.89137C9.87338 3.49132 7.92775 1.54569 5.5277 1.54569Z" fill="#212121"/>
</svg>
