<svg width="35" height="29" viewBox="0 0 35 29" fill="none" xmlns="http://www.w3.org/2000/svg">
<g clip-path="url(#clip0_528_707)">
<path d="M5.59984 7.37C6.22984 6.05 8.55984 6.19 12.2798 6.16C17.6498 6.16 25.3598 6.08 29.5698 6.11C32.9498 6.04 34.1798 7.07 33.7298 10.61C33.2098 13.56 33.4398 18.21 30.6898 19.88C29.5298 20.46 28.0398 20.49 26.6898 20.54C22.7798 20.6 16.6398 20.67 12.9098 20.66C8.73984 20.85 7.25984 18.97 6.45984 15C6.00984 12.77 4.90984 9.36 5.55984 7.47L5.60984 7.37H5.59984Z" stroke="#1D1D1B" stroke-miterlimit="10"/>
<path d="M5.40004 9.83C5.19004 3.11 4.45004 0.160002 0.0400391 0.530002" stroke="#1D1D1B" stroke-miterlimit="10"/>
<path d="M10.6295 27.22C13.1495 29.15 17.8395 26.38 14.5595 23.57C13.6795 22.83 12.3095 22.72 11.3095 23.26C9.80951 24.09 8.96951 26.03 10.5995 27.21L10.6295 27.23V27.22Z" stroke="#1D1D1B" stroke-miterlimit="10"/>
<path d="M6.74023 16.3C6.99023 19.06 7.05023 22.54 9.90023 22.37C14.8802 22.31 25.6002 22.41 30.6602 22.28" stroke="#1D1D1B" stroke-miterlimit="10"/>
<path d="M23.6696 27.17C26.1896 29.1 30.8796 26.33 27.5996 23.52C26.7196 22.78 25.3496 22.67 24.3496 23.21C22.8496 24.04 22.0096 25.98 23.6396 27.16L23.6696 27.18V27.17Z" stroke="#1D1D1B" stroke-miterlimit="10"/>
</g>
<defs>
<clipPath id="clip0_528_707">
<rect width="34.31" height="28.36" fill="white"/>
</clipPath>
</defs>
</svg>
