<svg width="33" height="31" viewBox="0 0 33 31" fill="none" xmlns="http://www.w3.org/2000/svg">
<path d="M31.0149 18.3213L32.8813 8.05604C32.9336 7.76839 32.9221 7.47277 32.8475 7.19007C32.773 6.90738 32.6372 6.64451 32.4499 6.42005C32.2626 6.19559 32.0282 6.01502 31.7634 5.89111C31.4986 5.76719 31.2098 5.70296 30.9175 5.70295H6.76459L6.02569 1.63897C5.94225 1.17897 5.69992 0.762886 5.34098 0.463336C4.98205 0.163786 4.52933 -0.000200264 4.06182 1.83545e-07H1.48825C1.26138 1.83545e-07 1.04379 0.0901268 0.883366 0.250553C0.722939 0.41098 0.632813 0.628565 0.632812 0.855442C0.632813 1.08232 0.722939 1.2999 0.883366 1.46033C1.04379 1.62076 1.26138 1.71088 1.48825 1.71088H4.06182C4.12861 1.71083 4.19329 1.73425 4.24457 1.77704C4.29585 1.81984 4.33047 1.87928 4.34237 1.945L8.1494 22.8837C8.19194 23.1182 8.27621 23.3432 8.39821 23.5479C7.81867 23.9792 7.3777 24.5702 7.12945 25.2486C6.88121 25.927 6.83651 26.6631 7.00084 27.3665C7.16518 28.0699 7.53138 28.71 8.05449 29.2082C8.57759 29.7064 9.2348 30.0409 9.9454 30.1707C10.656 30.3005 11.389 30.2199 12.0545 29.9389C12.7199 29.6578 13.2888 29.1885 13.6912 28.5886C14.0936 27.9888 14.3121 27.2844 14.3197 26.5621C14.3273 25.8397 14.1238 25.1309 13.7341 24.5227H24.6006C24.1577 25.2161 23.9583 26.0373 24.0337 26.8567C24.1091 27.6761 24.4551 28.447 25.0171 29.048C25.5792 29.649 26.3253 30.0458 27.1378 30.1759C27.9502 30.3059 28.7829 30.1618 29.5045 29.7663C30.226 29.3708 30.7954 28.7463 31.1228 27.9914C31.4502 27.2365 31.517 26.3941 31.3127 25.5971C31.1084 24.8 30.6446 24.0936 29.9944 23.5893C29.3442 23.085 28.5447 22.8114 27.7218 22.8118H10.1133C10.0465 22.8118 9.98179 22.7884 9.93051 22.7456C9.87923 22.7028 9.84462 22.6434 9.83271 22.5777L9.35682 19.9603H29.0511C29.5186 19.9605 29.9713 19.7965 30.3302 19.497C30.6892 19.1974 30.9315 18.7813 31.0149 18.3213ZM12.609 26.5187C12.609 26.9135 12.4919 27.2994 12.2726 27.6276C12.0533 27.9559 11.7415 28.2117 11.3768 28.3628C11.0121 28.5139 10.6108 28.5534 10.2236 28.4764C9.83637 28.3994 9.48071 28.2093 9.20156 27.9301C8.92241 27.651 8.73231 27.2953 8.65529 26.9081C8.57827 26.5209 8.6178 26.1196 8.76888 25.7549C8.91995 25.3901 9.17579 25.0784 9.50403 24.8591C9.83228 24.6397 10.2182 24.5227 10.613 24.5227C11.1422 24.5233 11.6495 24.7338 12.0237 25.108C12.3979 25.4822 12.6084 25.9895 12.609 26.5187ZM29.7178 26.5187C29.7178 26.9135 29.6008 27.2994 29.3815 27.6276C29.1621 27.9559 28.8504 28.2117 28.4857 28.3628C28.1209 28.5139 27.7196 28.5534 27.3324 28.4764C26.9452 28.3994 26.5896 28.2093 26.3104 27.9301C26.0313 27.651 25.8412 27.2953 25.7641 26.9081C25.6871 26.5209 25.7266 26.1196 25.8777 25.7549C26.0288 25.3901 26.2846 25.0784 26.6129 24.8591C26.9411 24.6397 27.327 24.5227 27.7218 24.5227C28.251 24.5233 28.7584 24.7338 29.1326 25.108C29.5068 25.4822 29.7173 25.9895 29.7178 26.5187ZM7.07564 7.41383H30.9175C30.9592 7.41384 31.0005 7.42302 31.0383 7.44072C31.0761 7.45843 31.1096 7.48422 31.1364 7.51629C31.1631 7.54836 31.1825 7.58591 31.1932 7.6263C31.2038 7.66668 31.2055 7.70891 31.198 7.75001L29.3316 18.0153C29.3197 18.081 29.2851 18.1405 29.2338 18.1833C29.1825 18.2261 29.1179 18.2495 29.0511 18.2494H9.04577L7.07564 7.41383Z" fill="black"/>
</svg>
