<svg width="31" height="31" viewBox="0 0 31 31" fill="none" xmlns="http://www.w3.org/2000/svg">
<path d="M15.4679 3.86696C16.4239 3.86696 17.3584 4.15045 18.1533 4.68158C18.9482 5.21272 19.5678 5.96764 19.9336 6.85088C20.2995 7.73412 20.3952 8.70602 20.2087 9.64366C20.0222 10.5813 19.5618 11.4426 18.8858 12.1186C18.2098 12.7946 17.3485 13.255 16.4109 13.4415C15.4732 13.628 14.5013 13.5323 13.6181 13.1664C12.7348 12.8006 11.9799 12.181 11.4488 11.3861C10.9177 10.5912 10.6342 9.65667 10.6342 8.70066C10.6342 7.41868 11.1434 6.18921 12.0499 5.28272C12.9564 4.37622 14.1859 3.86696 15.4679 3.86696ZM15.4679 1.93348C14.1294 1.93348 12.8211 2.33037 11.7082 3.07395C10.5954 3.81754 9.728 4.87443 9.21581 6.11097C8.70362 7.34751 8.5696 8.70816 8.83072 10.0209C9.09183 11.3336 9.73634 12.5394 10.6827 13.4858C11.6292 14.4322 12.8349 15.0767 14.1477 15.3378C15.4604 15.5989 16.821 15.4649 18.0576 14.9527C19.2941 14.4405 20.351 13.5732 21.0946 12.4603C21.8382 11.3474 22.235 10.0391 22.235 8.70066C22.235 6.90589 21.5221 5.18463 20.253 3.91554C18.9839 2.64645 17.2626 1.93348 15.4679 1.93348Z" fill="black"/>
<path d="M25.1352 28.9969H23.2017V24.1632C23.2017 23.5285 23.0767 22.8999 22.8338 22.3135C22.5909 21.727 22.2348 21.1942 21.786 20.7453C21.3371 20.2965 20.8043 19.9404 20.2178 19.6975C19.6314 19.4546 19.0028 19.3295 18.368 19.3295H12.5676C11.2856 19.3295 10.0561 19.8388 9.14965 20.7453C8.24316 21.6518 7.73389 22.8813 7.73389 24.1632V28.9969H5.80042V24.1632C5.80042 22.3685 6.51338 20.6472 7.78248 19.3781C9.05157 18.109 10.7728 17.3961 12.5676 17.3961H18.368C20.1628 17.3961 21.8841 18.109 23.1531 19.3781C24.4222 20.6472 25.1352 22.3685 25.1352 24.1632V28.9969Z" fill="black"/>
</svg>
